<?xml version="1.0" encoding="utf-8"?>
<!-- Generator: Adobe Illustrator 22.0.1, SVG Export Plug-In . SVG Version: 6.00 Build 0)  -->
<svg version="1.1" xmlns="http://www.w3.org/2000/svg" xmlns:xlink="http://www.w3.org/1999/xlink" x="0px" y="0px" viewBox="0 0 111.8 38.2" style="enable-background:new 0 0 111.8 38.2;" xml:space="preserve" id="aboutme">
<g mask="url(#masking)" fill="#ffffff">
    <image style="overflow:visible;" width="100" height="28" xlink:href="img/about_me.png" transform="matrix(1 0 0 1 6.3997 5.6498)"></image>
</g>
<mask id="masking" maskUnits="objectBoundingBox">
	<path class="st0" d="M9.1,28.6c0,0,19.7-24.1,24.3-21.3c0,0,2.2,2-5.9,14.8c0,0-4.5,7.5-3.6,10.7" stroke="#f26295" stroke-width="2" stroke-miterlimit="1" fill="none"/>
	<path class="st1" d="M6.4,22.1c0,0,19.9-7.2,28.7-4" stroke="#f26295" stroke-width="2" stroke-miterlimit="1" fill="none"/>
	<path class="st1" d="M42.2,5.6c0,0,1.4,1.8-9.7,17.7c0,0,7.5-8.5,9.1-6.1s-8.3,6.1-8.3,6.1" stroke="#f26295" stroke-width="2" stroke-miterlimit="1" fill="none"/>
	<path class="st1" d="M46.8,17.8c0,0-6.8,2.2-5.2,5.6c0,0,4.2,0.9,6.7-5.6l-4.6,0.7c0,0,3.4-0.3,7.5-1.2s1.9,1.5,1.9,1.5
		s-7.6,9.5,6,0.5c0,0-2.8,6,2.5,2.7" stroke="#f26295" stroke-width="2" stroke-miterlimit="1" fill="none"/>
	<path class="st1" d="M72,8.9c0,0-20.7,24.1-2.6,11" stroke="#f26295" stroke-width="2" stroke-miterlimit="1" fill="none"/>
	<path class="st1" d="M63.5,13.2c0,0,15.6-3.2,16.4,1.8" stroke="#f26295" stroke-width="2" stroke-miterlimit="1" fill="none"/>
	<path class="st1" d="M84,16.1l-4.9,7.7c0,0,14.5-13,7.1-2.1c0,0,6.7-4.1,3.5,0.2c0,0-1.5,2,4-1" stroke="#f26295" stroke-width="2" stroke-miterlimit="1" fill="none"/>
	<path class="st1" d="M94.6,20.6c0,0,3.4,0.1,6-1.5c2.6-1.6,0.8-3.1-3.8-0.8S95.4,23,95.4,23s3.2,0.3,9.5-3.9" stroke="#f26295" stroke-width="2" stroke-miterlimit="1" fill="none"/>
    </mask>
</svg>
