<?xml version="1.0" encoding="utf-8"?>
<!-- Generator: Adobe Illustrator 22.0.1, SVG Export Plug-In . SVG Version: 6.00 Build 0)  -->
<svg version="1.1" xmlns="http://www.w3.org/2000/svg" xmlns:xlink="http://www.w3.org/1999/xlink" x="0px" y="0px"
	 viewBox="0 0 136.7 39.9" style="enable-background:new 0 0 136.7 39.9;" xml:space="preserve" id="mypro">
    <g mask="url(#masking3)" fill="#ffffff">
            <image style="overflow:visible;" width="129" height="32" xlink:href="img/mypro.png" transform="matrix(1 0 0 1 4.101 4.3667)"></image>
    </g>
    <mask id="masking3" maskUnits="objectBoundingBox">
        <path class="st0" d="M5.2,15c0,0,26.2-21.7,9,0l-4.9,7.2c0,0,24.2-21.5,12.1-7.4c0,0-1.1,1.6-4,7.4c0,0,31.6-30,16.6-5.6
            c0,0-9.2,14.6-7.6,15.9"/>
        <path class="st0" d="M37.9,13.9c0,0-5.2,9.4,7.8,1.1c0,0-0.2,5.4-5.4,9.9S35.4,35,35.4,35"/>
        <path class="st0" d="M55.6,15L44.8,35c0,0,2-15,15.7-19.9c0,0,4.7-1.1,2,2.2c-2.7,3.4-6.9,2.7-6.9,2.7"/>
        <path class="st0" d="M66.1,14.8c0,0,0.5,3.3-2.8,5.5s6.8-7.3,10.2-5.5"/>
        <path class="st0" d="M75.7,15.7c0,0-5.9,3-3.6,5s5.7-3.7,5.7-3.7s0.5-1.9-4.1-1.3c0,0,4.8,0.5,9.1-0.9"/>
        <path class="st0" d="M88,14.8c0,0-5.6,0.3-7.2,5.1c0,0-0.1,2.3,3.6-0.6s12.4-14,12.4-14s-10.1,11.1-9,13.6c0,0-1.4,8.5,8.3-3.6
            c0,0-8.2,11.4,5.5,1.6c0,0-3.6,7.9,4,1.1"/>
        <path class="st0" d="M111.5,14.6c0,0-7.7,2-7.5,6.1c0,0,0.9,1.3,8.7-2.7"/>
        <path class="st0" d="M122.6,6.4c0,0-20.2,24.5-2.6,11.3"/>
        <path class="st0" d="M127.6,14.6c0,0-12.9,2.9-4.5,5.3c0,0,6.6,1.3-4.9,1"/>
        <path class="st0" d="M113.5,10.9c0,0,16.1-2.9,17.3,1.6"/>
        <path class="st0" d="M130.6,19.9c0,0-1-1.3,0.7-1.2c1.7,0.1-0.8,1.8-0.8,1.8"/>
    </mask>
</svg>
