<?xml version="1.0" encoding="utf-8"?>
<!-- Generator: Adobe Illustrator 22.0.1, SVG Export Plug-In . SVG Version: 6.00 Build 0)  -->
<svg version="1.1" xmlns="http://www.w3.org/2000/svg" xmlns:xlink="http://www.w3.org/1999/xlink" x="0px" y="0px"
	 viewBox="0 0 140 44.9" style="enable-background:new 0 0 140 44.9;" xml:space="preserve" id="future">
    <g mask="url(#masking4)" fill="#ffffff">
            <image style="overflow:visible;" width="128" height="33" xlink:href="img/future.png" transform="matrix(1 0 0 1 6.033 5.9069)"></image>
    </g>
    <mask id="masking4" maskUnits="objectBoundingBox">
        <path class="st0" d="M9.9,11.3c0,0,19.6-7.9,29.3-2.4" stroke="#f26295" stroke-width="2" stroke-miterlimit="1" fill="none"/>
        <path class="st0" d="M25.9,7.3c0,0,2.9,0.2-9.5,15.2" stroke="#f26295" stroke-width="2" stroke-miterlimit="1" fill="none"/>
        <path class="st0" d="M26.2,24.7c-9.6-0.8-19.3,1-19.3,1" stroke="#f26295" stroke-width="2" stroke-miterlimit="1" fill="none"/>
        <path class="st0" d="M32.2,14.9c0,0,0.5,5.6-5.4,9c0,0,9.8-9,7.6-4c-2.2,5,7.4-1.5,7.4-1.5" stroke="#f26295" stroke-width="2" stroke-miterlimit="1" fill="none"/>
        <path class="st0" d="M46.8,12.5c0,0,19.1-2.8,16.6,1.8" stroke="#f26295" stroke-width="2" stroke-miterlimit="1" fill="none"/>
        <path class="st0" d="M56.6,7.7c0,0-21.8,25.4-3.7,12.1" stroke="#f26295" stroke-width="2" stroke-miterlimit="1" fill="none"/>
        <path class="st0" d="M61.8,7.7c0,0-17.4,22-4.5,11.7c0,0,4.1-3.8,1.9,1.2c-2.2,4.9,4-0.6,4-0.6" stroke="#f26295" stroke-width="2" stroke-miterlimit="1" fill="none"/>
        <path class="st0" d="M63.2,19.4c0,0,8.3-0.4,6.8-3.1s-7.1,4-6.3,6.1c0.8,2.2,10.2-4.1,10.2-4.1" stroke="#f26295" stroke-width="2" stroke-miterlimit="1" fill="none"/>
        <path class="st0" d="M91,6.3c0,0-19.6,21.9-18.9,31.2c0,0,15.4-13.8,6.4-18.3c0,0-0.6-1.6,8.8-1.9c0,0-1,2.2-3,3.8
            c-2,1.6,2.6,2.1,8.4-2.6c0,0-3,5.6,2.1,2.1" stroke="#f26295" stroke-width="2" stroke-miterlimit="1" fill="none"/>
        <path class="st0" d="M105.5,7.7c0,0-22.2,26.6-1,10.1c0,0-6.9,9.7,5.8,0.5c0,0-3.2,6.6,2.5,2.5" stroke="#f26295" stroke-width="2" stroke-miterlimit="1" fill="none"/>
        <path class="st0" d="M115.6,15.7c0,0,1.9,1.7-2.8,6.7c0,0,7.2-7.2,10.7-6.7" stroke="#f26295" stroke-width="2" stroke-miterlimit="1" fill="none"/>
        <path class="st0" d="M123.4,19.4c0,0,5.1,0.7,5.9-3.1c0,0-6.2-0.9-6.9,6.2c0,0,0.6,2.5,10.7-4.2" stroke="#f26295" stroke-width="2" stroke-miterlimit="1" fill="none"/>
        <path class="st0" d="M96.4,13c0,0,13.4-4.7,17.3,1.3" stroke="#f26295" stroke-width="2" stroke-miterlimit="1" fill="none"/>
    </mask>
</svg>
